<svg xmlns="http://www.w3.org/2000/svg" fill="none" viewBox="0 0 283 64"><path fill="#000" d="M141 16c-11 0-19 7-19 18s9 18 20 18c7 0 13-3 16-7l-7-5c-2 3-6 5-10 5-8 0-13-5-13-11s5-11 13-11c4 0 8 2 10 5l7-5c-3-4-9-7-17-7zm-36 0c-6 0-11 3-14 8V0h-9v34h9v-9c0-6 4-10 11-10s11 4 11 10v9h9V28c0-8-6-12-17-12zm-43 0c-10 0-18 7-18 18s8 18 18 18 18-7 18-18-8-18-18-18zm0 27c-5 0-9-4-9-9s4-9 9-9 9 4 9 9-4 9-9 9zm197-27c-10 0-18 7-18 18s8 18 18 18 18-7 18-18-8-18-18-18zm0 27c-5 0-9-4-9-9s4-9 9-9 9 4 9 9-4 9-9 9zm66-27c-10 0-18 7-18 18s8 18 18 18 18-7 18-18-8-18-18-18zm0 27c-5 0-9-4-9-9s4-9 9-9 9 4 9 9-4 9-9 9z"/></svg>
